<?xml version="1.0" standalone="no"?>
<!DOCTYPE svg PUBLIC "-//W3C//DTD SVG 20010904//EN"
 "http://www.w3.org/TR/2001/REC-SVG-20010904/DTD/svg10.dtd">
<svg version="1.0" xmlns="http://www.w3.org/2000/svg"
 width="842.000000pt" height="842.000000pt" viewBox="0 0 842.000000 842.000000"
 preserveAspectRatio="xMidYMid meet">
<metadata>
Created by potrace 1.14, written by Peter Selinger 2001-2017
</metadata>
<g transform="translate(0.000000,842.000000) scale(0.100000,-0.100000)"
fill="#000000" stroke="none">
<path d="M2720 7611 l0 -809 47 -38 c61 -51 117 -98 123 -104 3 -3 21 -17 40
-31 19 -15 45 -36 58 -47 13 -11 41 -35 64 -54 42 -34 147 -121 228 -189 36
-30 379 -313 440 -362 71 -58 247 -204 256 -212 6 -5 30 -26 54 -45 58 -46
426 -349 565 -465 87 -72 494 -406 515 -423 3 -2 5 -957 5 -2123 l0 -2119 -95
-1 c-514 -3 -1703 0 -1707 4 -4 4 -7 3871 -4 4192 1 50 2 51 69 106 112 92
636 530 652 546 13 12 10 18 -24 46 -60 49 -239 197 -261 216 -103 86 -147
121 -154 121 -4 0 -25 -15 -47 -34 -21 -18 -95 -79 -164 -135 -69 -56 -134
-110 -145 -119 -11 -9 -58 -48 -105 -87 -47 -38 -87 -72 -90 -75 -3 -3 -25
-21 -50 -40 -24 -19 -52 -42 -61 -50 -8 -8 -59 -50 -112 -94 l-97 -78 0 -2554
0 -2554 1490 0 1490 0 0 2553 0 2553 -211 175 c-116 96 -243 200 -283 232 -39
32 -91 75 -116 95 -25 21 -113 93 -195 162 -83 69 -184 152 -225 186 -120 98
-314 257 -327 268 -6 6 -28 25 -50 42 -21 17 -67 56 -103 85 -36 30 -101 83
-145 119 -44 35 -82 67 -85 70 -3 3 -32 27 -65 55 -33 27 -65 54 -71 60 -6 5
-28 24 -49 40 -21 17 -43 35 -49 40 -6 6 -47 39 -91 75 -44 36 -89 73 -100 82
-31 26 -157 130 -194 160 l-33 27 0 371 c-1 204 2 373 5 376 4 5 1447 8 1752
5 l50 -1 0 -375 0 -375 -31 -27 c-47 -42 -92 -82 -174 -153 -41 -36 -82 -72
-90 -80 -8 -8 -40 -36 -70 -61 -30 -26 -75 -65 -100 -88 -25 -22 -89 -78 -142
-123 -53 -46 -99 -88 -101 -94 -3 -5 32 -39 76 -75 44 -35 88 -71 97 -79 9 -8
38 -33 65 -55 28 -22 58 -47 69 -55 10 -8 23 -19 30 -25 51 -45 105 -84 108
-77 2 4 15 16 29 27 28 21 321 265 329 275 3 3 86 72 185 155 99 82 182 152
185 155 3 3 31 27 63 53 l57 49 0 809 0 809 -1490 0 -1490 0 0 -809z"/>
</g>
</svg>
